<svg xmlns="http://www.w3.org/2000/svg" width="48.07" height="61.726" viewBox="0 0 48.07 61.726">
  <g id="Group_38133" data-name="Group 38133" transform="translate(-240.169 -355.56)">
    <path id="document-checked" d="M266.013,412.49H244.387a4.218,4.218,0,0,1-4.218-4.218v-48.48a4.217,4.217,0,0,1,4.2-4.232H267.58l12.651,14.759v24.459a11.6,11.6,0,1,1-14.217,17.712Zm-1.541-3.039H244.945a2.034,2.034,0,0,1-2.034-2.034V360.622a2.034,2.034,0,0,1,2.034-2.023h20.341v10.158a4.055,4.055,0,0,0,4.031,4.081h8.173V393.6a11.186,11.186,0,0,0-13.018,15.851Zm3.108-50.728v9.469a2.121,2.121,0,0,0,2.108,2.127h7.8Z" fill="#5f5f5f" fill-rule="evenodd"/>
    <g id="Group_38132" data-name="Group 38132" transform="translate(261.704 390.75)">
      <circle id="Ellipse_3316" data-name="Ellipse 3316" cx="13.268" cy="13.268" r="13.268" fill="#418c33"/>
      <path id="Path_8542" data-name="Path 8542" d="M270.518,405.655l-5.87-5.87,1.828-1.825L270.518,402l7.783-7.783,1.828,1.825Z" transform="translate(-259.12 -386.67)" fill="#fff" fill-rule="evenodd"/>
    </g>
  </g>
</svg>
