<svg xmlns="http://www.w3.org/2000/svg" width="48.536" height="61.535" viewBox="0 0 48.536 61.535">
  <g id="Group_38133" data-name="Group 38133" transform="translate(-240.169 -355.56)">
    <path id="document-checked" d="M266.013,412.49H244.387a4.218,4.218,0,0,1-4.218-4.218v-48.48a4.217,4.217,0,0,1,4.2-4.232H267.58l12.651,14.759v24.459a11.6,11.6,0,1,1-14.217,17.712Zm-1.541-3.039H244.945a2.034,2.034,0,0,1-2.034-2.034V360.622a2.034,2.034,0,0,1,2.034-2.023h20.341v10.158a4.055,4.055,0,0,0,4.031,4.081h8.173V393.6a11.186,11.186,0,0,0-13.018,15.851Zm3.108-50.728v9.469a2.121,2.121,0,0,0,2.108,2.127h7.8Z" fill="#5f5f5f" fill-rule="evenodd"/>
    <g id="Group_38132" data-name="Group 38132" transform="translate(261.704 390.75)">
      <circle id="Ellipse_3316" data-name="Ellipse 3316" cx="13.268" cy="13.268" r="13.268" transform="translate(0.465 -0.191)" fill="#ea3425"/>
      <path id="Path_8547" data-name="Path 8547" d="M10.934-7.945l4.535-4.535a.5.5,0,0,0,.158-.36.5.5,0,0,0-.158-.36l-.721-.738a.538.538,0,0,0-.369-.141.477.477,0,0,0-.352.141L9.492-9.4a.337.337,0,0,1-.246.105A.337.337,0,0,1,9-9.4l-4.535-4.57a.527.527,0,0,0-.36-.141.527.527,0,0,0-.36.141l-.738.738a.5.5,0,0,0-.158.36.5.5,0,0,0,.158.36L7.541-7.98a.337.337,0,0,1,.105.246.337.337,0,0,1-.105.246l-4.57,4.57a.451.451,0,0,0-.158.352.506.506,0,0,0,.158.369l.738.721a.5.5,0,0,0,.36.158.5.5,0,0,0,.36-.158L9-6.012a.337.337,0,0,1,.246-.105.337.337,0,0,1,.246.105l4.535,4.535a.451.451,0,0,0,.352.158.506.506,0,0,0,.369-.158l.721-.721a.506.506,0,0,0,.158-.369.451.451,0,0,0-.158-.352L10.934-7.453a.433.433,0,0,1-.07-.246A.433.433,0,0,1,10.934-7.945Z" transform="translate(4.653 20.924)" fill="#fff"/>
    </g>
  </g>
</svg>
