<svg xmlns="http://www.w3.org/2000/svg" width="48.536" height="61.535" viewBox="0 0 48.536 61.535">
  <g id="Group_38133" data-name="Group 38133" transform="translate(-240.169 -355.56)">
    <path id="document-checked" d="M266.013,412.49H244.387a4.218,4.218,0,0,1-4.218-4.218v-48.48a4.217,4.217,0,0,1,4.2-4.232H267.58l12.651,14.759v24.459a11.6,11.6,0,1,1-14.217,17.712Zm-1.541-3.039H244.945a2.034,2.034,0,0,1-2.034-2.034V360.622a2.034,2.034,0,0,1,2.034-2.023h20.341v10.158a4.055,4.055,0,0,0,4.031,4.081h8.173V393.6a11.186,11.186,0,0,0-13.018,15.851Zm3.108-50.728v9.469a2.121,2.121,0,0,0,2.108,2.127h7.8Z" fill="#5f5f5f" fill-rule="evenodd"/>
    <g id="Group_38132" data-name="Group 38132" transform="translate(261.704 390.75)">
      <circle id="Ellipse_3316" data-name="Ellipse 3316" cx="13.268" cy="13.268" r="13.268" transform="translate(0.465 -0.191)" fill="#efc752"/>
      <g id="Group_38249" data-name="Group 38249" transform="translate(0.5 -0.2)">
        <path id="Union_38" data-name="Union 38" d="M-1377.034-352.439a1.75,1.75,0,0,1,1.75-1.751,1.75,1.75,0,0,1,1.75,1.751,1.75,1.75,0,0,1-1.75,1.75A1.75,1.75,0,0,1-1377.034-352.439Zm.583-2.8a.583.583,0,0,1-.583-.583v-7.585a.582.582,0,0,1,.583-.583h2.333a.583.583,0,0,1,.584.583v7.585a.584.584,0,0,1-.584.583Z" transform="translate(1389 371)" fill="#fff"/>
      </g>
    </g>
  </g>
</svg>
