<svg xmlns="http://www.w3.org/2000/svg" width="20" height="20">
	<defs>
		<clipPath id="a">
			<path d="M0 0h20v20H0z"/>
		</clipPath>
	</defs>
	<g data-name="7s-favicon-20x20" clip-path="url(#a)">
		<path fill="#fff" d="M0 0h20v20H0z"/>
		<path data-name="Rectangle 1" fill="#0a9ad7" d="M0 0h20v20H0z"/>
		<path data-name="Path 16"
		      d="M19.974 11.175a1.706 1.706 0 0 0-.192-.433 3.538 3.538 0 0 0-.417-.55 8.484 8.484 0 0 0-.779-.748c-.479-.408-.874-.7-1.143-.893l-.524-.388-.309-.2-.056-.034a12.643 12.643 0 0 0-1.208-.689 5.086 5.086 0 0 0-.51-.222 3.068 3.068 0 0 0-.309-.087 1.446 1.446 0 0 0-.208-.038 1.291 1.291 0 0 0-.244 0 1.888 1.888 0 0 0-.785.266 4.851 4.851 0 0 0-.572.411c-.139.111-.275.232-.42.361a32.91 32.91 0 0 0-.884-.837 6.556 6.556 0 0 0-.863-.694 2.521 2.521 0 0 0-.618-.3 1.78 1.78 0 0 0-.219-.066L9.358 6h-.083a1.625 1.625 0 0 0-.226.025 2.373 2.373 0 0 0-.73.284 4.325 4.325 0 0 0-.519.346c-.256.2-.519.426-.825.717L5.496 8.781c-.46.442-.958.908-1.483 1.322l-.077.062h-.8a8.821 8.821 0 0 0-1.05.034 4.1 4.1 0 0 0-1.152.278 1.783 1.783 0 0 0-.649.442 1.078 1.078 0 0 0-.278.593.961.961 0 0 0 .263.772 1.2 1.2 0 0 0 .46.309 1.616 1.616 0 0 0 .4.1 2.187 2.187 0 0 0 .309.022h.049l.304-.015a4.39 4.39 0 0 0 1.171-.28 7.978 7.978 0 0 0 1.764-.973c1.02 0 2.092-.019 3.111-.105a11.052 11.052 0 0 0 1.781-.281 6.417 6.417 0 0 0 1.644-.643 5.364 5.364 0 0 0 .7-.476l.108-.087a11.976 11.976 0 0 0 1.254.893 14.432 14.432 0 0 0 3.161 1.431 8.9 8.9 0 0 0 1.545.352 3.723 3.723 0 0 0 .822.015 1.807 1.807 0 0 0 .482-.114 1.017 1.017 0 0 0 .618-1.27zm-9.34-1.854a6.8 6.8 0 0 1-2.9.76c-.457.037-.927.059-1.387.071l.213-.185c.328-.287.652-.581.973-.871.185-.17.371-.337.553-.5l.077-.071c.222-.195.429-.38.643-.538a1.39 1.39 0 0 1 .531-.309h.082a1.2 1.2 0 0 1 .247.124 6.451 6.451 0 0 1 .67.516c.207.179.414.365.618.55l.139.124a4.165 4.165 0 0 1-.463.318zm7.573 1.931a7.381 7.381 0 0 1-1.3-.346 12.458 12.458 0 0 1-2.778-1.421 17.457 17.457 0 0 1-.9-.677l.287-.244a3.3 3.3 0 0 1 .417-.309.689.689 0 0 1 .247-.093 1.007 1.007 0 0 1 .235.059 3.726 3.726 0 0 1 .368.161 11.163 11.163 0 0 1 1.084.64l.049.031.352.238.439.309c.25.179.618.451 1.066.822a6.584 6.584 0 0 1 .661.618 2.682 2.682 0 0 1 .195.238 3.3 3.3 0 0 1-.422-.026zm-16.788.393a.556.556 0 0 1-.2-.049.865.865 0 0 1 .278-.188 2.892 2.892 0 0 1 .859-.222q.232-.028.463-.037h.383a4.672 4.672 0 0 1-.485.238 3.346 3.346 0 0 1-.871.247l-.229.019a1.409 1.409 0 0 1-.2-.006z"
		      fill="#fff"/>
	</g>
</svg>