<!DOCTYPE svg PUBLIC "-//W3C//DTD SVG 1.1//EN" "http://www.w3.org/Graphics/SVG/1.1/DTD/svg11.dtd">
<svg xmlns="http://www.w3.org/2000/svg" xmlns:xlink="http://www.w3.org/1999/xlink" display="none">
  <symbol xmlns="http://www.w3.org/2000/svg" width="32" height="32" viewBox="0 0 32 32" id="onboarding_settings">
    <g id="Group_38250" data-name="Group 38250" transform="translate(-682 -700)">
      <rect id="Rectangle_9876" data-name="Rectangle 9876" width="32" height="32" transform="translate(682 700)" fill="none"/>
      <path id="Path_8547" data-name="Path 8547" d="M16-13.375a4.815,4.815,0,0,0-3.531,1.469A4.815,4.815,0,0,0,11-8.375a4.815,4.815,0,0,0,1.469,3.531A4.815,4.815,0,0,0,16-3.375a4.815,4.815,0,0,0,3.531-1.469A4.815,4.815,0,0,0,21-8.375a4.815,4.815,0,0,0-1.469-3.531A4.815,4.815,0,0,0,16-13.375Zm0,8a2.893,2.893,0,0,1-2.125-.875A2.893,2.893,0,0,1,13-8.375a2.893,2.893,0,0,1,.875-2.125A2.893,2.893,0,0,1,16-11.375a2.893,2.893,0,0,1,2.125.875A2.893,2.893,0,0,1,19-8.375a2.893,2.893,0,0,1-.875,2.125A2.893,2.893,0,0,1,16-5.375Zm15-7H27.313q-.125-.313-.234-.594a4.569,4.569,0,0,0-.266-.562l2.625-2.625a.955.955,0,0,0,.2-.312,1.046,1.046,0,0,0,.078-.406.968.968,0,0,0-.078-.375.955.955,0,0,0-.2-.312l-4.25-4.25a.954.954,0,0,0-.7-.281.954.954,0,0,0-.7.281l-2.625,2.625a4.569,4.569,0,0,0-.562-.266q-.281-.109-.594-.234v-3.688a.961.961,0,0,0-.3-.7.961.961,0,0,0-.7-.3H13a.961.961,0,0,0-.7.3.961.961,0,0,0-.3.7v3.688q-.312.125-.594.234a4.569,4.569,0,0,0-.562.266L8.219-21.813a.954.954,0,0,0-.7-.281.954.954,0,0,0-.7.281l-4.25,4.25a.955.955,0,0,0-.2.313.968.968,0,0,0-.078.375,1.046,1.046,0,0,0,.078.406.955.955,0,0,0,.2.313l2.625,2.625a4.569,4.569,0,0,0-.266.563q-.109.281-.234.594H1a.961.961,0,0,0-.7.3.961.961,0,0,0-.3.7v6a.961.961,0,0,0,.3.7.961.961,0,0,0,.7.3H4.688q.125.312.234.594a4.569,4.569,0,0,0,.266.563L2.563-.594a.955.955,0,0,0-.2.313,1.046,1.046,0,0,0-.078.406A.968.968,0,0,0,2.359.5a.955.955,0,0,0,.2.313l4.25,4.25a1.02,1.02,0,0,0,1.406,0l2.625-2.625a4.569,4.569,0,0,0,.563.266q.281.109.594.234V6.625a1.014,1.014,0,0,0,1,1h6a1.014,1.014,0,0,0,1-1V2.938q.313-.125.594-.234a4.569,4.569,0,0,0,.563-.266l2.625,2.625a1.02,1.02,0,0,0,1.406,0l4.25-4.25a.955.955,0,0,0,.2-.312.968.968,0,0,0,.078-.375,1.046,1.046,0,0,0-.078-.406.955.955,0,0,0-.2-.312L26.813-3.219a4.569,4.569,0,0,0,.266-.562q.109-.281.234-.594H31a.961.961,0,0,0,.7-.3.961.961,0,0,0,.3-.7v-6a.961.961,0,0,0-.3-.7A.961.961,0,0,0,31-12.375Zm-1,6H26.563a.932.932,0,0,0-.578.2,1,1,0,0,0-.359.516q-.188.563-.406,1.109a8.8,8.8,0,0,1-.5,1.047.981.981,0,0,0-.109.625.88.88,0,0,0,.3.562L27.313.125,24.5,2.938,22.063.531a.88.88,0,0,0-.562-.3.981.981,0,0,0-.625.109,8.8,8.8,0,0,1-1.047.5q-.547.219-1.109.406a1,1,0,0,0-.516.359.932.932,0,0,0-.2.578V5.625H14V2.187a.932.932,0,0,0-.2-.578,1,1,0,0,0-.516-.359q-.562-.187-1.109-.406a8.8,8.8,0,0,1-1.047-.5A.981.981,0,0,0,10.5.234a.88.88,0,0,0-.562.3L7.5,2.938,4.688.125,7.094-2.313a.88.88,0,0,0,.3-.562A.981.981,0,0,0,7.281-3.5a8.8,8.8,0,0,1-.5-1.047q-.219-.547-.406-1.109a1,1,0,0,0-.359-.516.932.932,0,0,0-.578-.2H2v-4H5.438a.932.932,0,0,0,.578-.2,1,1,0,0,0,.359-.516q.188-.562.406-1.109a8.8,8.8,0,0,1,.5-1.047.981.981,0,0,0,.109-.625.88.88,0,0,0-.3-.562L4.688-16.875,7.5-19.687l2.437,2.406a.88.88,0,0,0,.563.3.981.981,0,0,0,.625-.109,8.8,8.8,0,0,1,1.047-.5q.547-.219,1.109-.406a1,1,0,0,0,.516-.359.932.932,0,0,0,.2-.578v-3.438h4v3.438a.932.932,0,0,0,.2.578,1,1,0,0,0,.516.359q.563.188,1.109.406a8.8,8.8,0,0,1,1.047.5.981.981,0,0,0,.625.109.88.88,0,0,0,.563-.3L24.5-19.687l2.813,2.813-2.406,2.438a.88.88,0,0,0-.3.563.981.981,0,0,0,.109.625,8.8,8.8,0,0,1,.5,1.047q.219.547.406,1.109a1,1,0,0,0,.359.516.932.932,0,0,0,.578.2H30Z" transform="translate(682 724.375)" fill="#3f9c35"/>
    </g>
  </symbol>
<symbol xmlns="http://www.w3.org/2000/svg" width="32" height="32" viewBox="0 0 32 32" id="onboarding_profile">
  <g id="Group_38248" data-name="Group 38248" transform="translate(-276 -699)">
    <rect id="Rectangle_9874" data-name="Rectangle 9874" width="32" height="32" transform="translate(276 699)" fill="none"/>
    <path id="Path_8549" data-name="Path 8549" d="M18-8.938h9v-2H18Zm0,5h9v-2H18Zm-8-4a2.893,2.893,0,0,0,2.125-.875A2.893,2.893,0,0,0,13-10.937a2.893,2.893,0,0,0-.875-2.125A2.893,2.893,0,0,0,10-13.937a2.893,2.893,0,0,0-2.125.875A2.893,2.893,0,0,0,7-10.937a2.893,2.893,0,0,0,.875,2.125A2.893,2.893,0,0,0,10-7.938Zm0-4a.961.961,0,0,1,.7.3.961.961,0,0,1,.3.7.961.961,0,0,1-.3.7.961.961,0,0,1-.7.3.961.961,0,0,1-.7-.3.961.961,0,0,1-.3-.7.961.961,0,0,1,.3-.7A.961.961,0,0,1,10-11.937Zm1,5H9A4.815,4.815,0,0,0,5.469-5.469,4.815,4.815,0,0,0,4-1.938v1H16v-1a4.815,4.815,0,0,0-1.469-3.531A4.815,4.815,0,0,0,11-6.937Zm-4.844,4A2.971,2.971,0,0,1,7.25-4.375,2.924,2.924,0,0,1,9-4.937h2a2.924,2.924,0,0,1,1.75.563,2.971,2.971,0,0,1,1.094,1.438ZM24-20.938a1.922,1.922,0,0,1-.594,1.406A1.922,1.922,0,0,1,22-18.937a1.922,1.922,0,0,1-1.406-.594A1.922,1.922,0,0,1,20-20.938v-1H12v1a1.922,1.922,0,0,1-.594,1.406A1.922,1.922,0,0,1,10-18.937a1.922,1.922,0,0,1-1.406-.594A1.922,1.922,0,0,1,8-20.938v-1H0v26H32v-26H24Zm1.875,1H30v22H2v-22H6.125A4.044,4.044,0,0,0,7.531-17.8,3.811,3.811,0,0,0,10-16.937a3.811,3.811,0,0,0,2.469-.859,4.044,4.044,0,0,0,1.406-2.141h4.25A4.044,4.044,0,0,0,19.531-17.8,3.811,3.811,0,0,0,22-16.937a3.811,3.811,0,0,0,2.469-.859A4.044,4.044,0,0,0,25.875-19.937Z" transform="translate(276 723.938)" fill="#3f9c35"/>
  </g>
</symbol>
<symbol xmlns="http://www.w3.org/2000/svg" width="32" height="32" viewBox="0 0 32 32" id="onboarding_insights">
  <g id="Group_38249" data-name="Group 38249" transform="translate(-460 -701)">
    <rect id="Rectangle_9875" data-name="Rectangle 9875" width="32" height="32" transform="translate(460 701)" fill="none"/>
    <path id="Path_8548" data-name="Path 8548" d="M1.879-8.629a1.038,1.038,0,0,0-.767.3,1.038,1.038,0,0,0-.3.767,1.038,1.038,0,0,0,.3.767,1.038,1.038,0,0,0,.767.3H4.013a1.038,1.038,0,0,0,.767-.3,1.038,1.038,0,0,0,.3-.767,1.038,1.038,0,0,0-.3-.767,1.038,1.038,0,0,0-.767-.3Zm6.6-8.733-1.467-1.5a1.054,1.054,0,0,0-.767-.333.949.949,0,0,0-.733.333.949.949,0,0,0-.333.733,1.054,1.054,0,0,0,.333.767l1.5,1.467a.81.81,0,0,0,.35.25,1.088,1.088,0,0,0,.383.083,1.088,1.088,0,0,0,.383-.083.81.81,0,0,0,.35-.25.949.949,0,0,0,.333-.733A.949.949,0,0,0,8.479-17.362Zm9.4-3V-22.5a1.038,1.038,0,0,0-.3-.767,1.038,1.038,0,0,0-.767-.3,1.038,1.038,0,0,0-.767.3,1.038,1.038,0,0,0-.3.767v2.133a1.038,1.038,0,0,0,.3.767,1.038,1.038,0,0,0,.767.3,1.038,1.038,0,0,0,.767-.3A1.038,1.038,0,0,0,17.879-20.362ZM26.612-15.9l1.5-1.467a1.054,1.054,0,0,0,.333-.767.949.949,0,0,0-.333-.733.949.949,0,0,0-.733-.333,1.054,1.054,0,0,0-.767.333l-1.467,1.5a.949.949,0,0,0-.333.733.949.949,0,0,0,.333.733.81.81,0,0,0,.35.25,1.088,1.088,0,0,0,.383.083,1.088,1.088,0,0,0,.383-.083A.81.81,0,0,0,26.612-15.9Zm5.133,9.4a1.038,1.038,0,0,0,.767-.3,1.038,1.038,0,0,0,.3-.767,1.038,1.038,0,0,0-.3-.767,1.038,1.038,0,0,0-.767-.3H29.612a1.038,1.038,0,0,0-.767.3,1.038,1.038,0,0,0-.3.767,1.038,1.038,0,0,0,.3.767,1.038,1.038,0,0,0,.767.3ZM16.813-17.163a9.418,9.418,0,0,0-3.75.75,9.632,9.632,0,0,0-3.05,2.05,9.632,9.632,0,0,0-2.05,3.05,9.418,9.418,0,0,0-.75,3.75,9.72,9.72,0,0,0,.367,2.683,9.658,9.658,0,0,0,1.05,2.4A9.081,9.081,0,0,0,10.313-.463a10.471,10.471,0,0,0,2.233,1.533v.967A1.027,1.027,0,0,0,13.613,3.1h6.4a1.027,1.027,0,0,0,1.067-1.067V1.071A9.266,9.266,0,0,0,23.3-.429a9.727,9.727,0,0,0,1.683-2.017,9.253,9.253,0,0,0,1.067-2.417,9.9,9.9,0,0,0,.367-2.7,9.418,9.418,0,0,0-.75-3.75,9.632,9.632,0,0,0-2.05-3.05,9.632,9.632,0,0,0-3.05-2.05A9.418,9.418,0,0,0,16.813-17.163ZM19.579-.629a.7.7,0,0,0-.467.35,1.2,1.2,0,0,0-.167.617V.971H14.679V.337a1.2,1.2,0,0,0-.167-.617.7.7,0,0,0-.467-.35,7.338,7.338,0,0,1-3.433-2.733,7.309,7.309,0,0,1-1.267-4.2,7.274,7.274,0,0,1,.583-2.917,7.691,7.691,0,0,1,1.583-2.367,7.3,7.3,0,0,1,2.367-1.6,7.393,7.393,0,0,1,2.933-.583,7.274,7.274,0,0,1,2.917.583A7.691,7.691,0,0,1,22.1-12.863,7.3,7.3,0,0,1,23.7-10.5a7.393,7.393,0,0,1,.583,2.933,7.309,7.309,0,0,1-1.267,4.2A7.338,7.338,0,0,1,19.579-.629Zm1.5,5.867a1.027,1.027,0,0,0-1.067-1.067h-6.4a1.027,1.027,0,0,0-1.067,1.067A1.027,1.027,0,0,0,13.613,6.3h2.133a1.067,1.067,0,1,0,0,2.133h2.133a1.067,1.067,0,1,0,0-2.133h2.133a1.027,1.027,0,0,0,1.067-1.067Z" transform="translate(459.188 724.563)" fill="#3f9c35"/>
  </g>
</symbol>
</svg>
