<svg enable-background="new 0 0 52 52" height="52" viewBox="0 0 52 52" width="52" xmlns="http://www.w3.org/2000/svg"><g fill="#fff"><path d="m20.5 9.1c.2.6.8.9 1.4.9h8.1c.6 0 1.2-.3 1.4-.9l3.2-5.9c.2-.6-.2-1.2-.8-1.2h-7.8-7.8c-.6 0-1 .6-.7 1.1z"/><path d="m30.7 14.7h-9.4c-7.9 0-14.3 6.5-14.3 14.5v16c0 2.6 2.1 4.8 4.8 4.8h28.4c2.6 0 4.8-2.2 4.8-4.8v-16c0-8-6.5-14.5-14.3-14.5zm-2.3 27v2.7c0 .5-.5.8-1 .8h-3.2c-.5 0-.6-.3-.6-.8v-2.6c-2.4-.5-4.4-1.5-4.9-2-.6-.6-.8-1.1-.3-1.8l1-1.6c.2-.4.7-.6 1.2-.6.3 0 .6.1.8.2h.1c1.6 1 3 1.4 4 1.4 1.1 0 2-.6 2-1.2 0-.5-.3-1.3-3.3-2.3-2.7-1-6-2.6-6-6.3 0-2.2 1.4-4.7 5.4-5.5v-2.4c0-.5.2-.8.6-.8h3.2c.5 0 1 .3 1 .8v2.3c1.6.4 3.3 1.2 3.9 1.6.3.2.5.6.6 1s-.1.8-.3 1l-1.4 1.4c-.3.4-.9.7-1.3.7-.2 0-.5-.1-.7-.2-1.6-.9-2.9-1.4-3.8-1.4-1.3 0-1.9.6-1.9 1 0 .6.3 1.2 3 2.2 3.3 1.1 7 2.9 7 6.7.1 2.6-2 4.9-5.1 5.7z"/></g></svg>