<svg enable-background="new 0 0 52 52" height="52" viewBox="0 0 52 52" width="52" xmlns="http://www.w3.org/2000/svg"><g fill="#fff"><path d="m30.1 26.1c0-2.3 1.4-4.3 3.3-5.3-.3-3.9-3.5-6.9-7.5-6.9-4.1 0-7.5 3.4-7.5 7.5s3.4 7.5 7.5 7.5c1.5 0 3-.5 4.1-1.3v-1.5z"/><path d="m30.1 36.4v-1.9c0-.7.1-1.3.3-1.9h-17.6c0-2.9-2.3-5.3-5.3-5.3v-11.2c2.9 0 5.3-2.3 5.3-5.3h26.3c0 2.9 2.3 5.3 5.3 5.3v4h3.8c.7 0 1.3.1 1.9.3v-10.7c0-2.5-2-4.5-4.5-4.5h-39.1c-2.5 0-4.5 2-4.5 4.5v24.2c0 2.5 2 4.5 4.5 4.5h24c-.2-.6-.4-1.3-.4-2z"/><path d="m50 44.9c0 1-1 1.9-2 1.9h-12c-1 0-1.9-.9-1.9-1.9v-1.9c0-1 .9-1.9 1.9-1.9h12.1c1 0 1.9.9 1.9 1.9z"/><path d="m50 36.5c0 1-1 1.9-2 1.9h-12c-1 0-1.9-.9-1.9-1.9v-1.9c0-1 .9-1.9 1.9-1.9h12.1c1 0 1.9.9 1.9 1.9z"/><path d="m50 28c0 1-1 1.9-2 1.9h-12c-1 0-1.9-.9-1.9-1.9v-1.9c0-1 .9-1.9 1.9-1.9h12.1c1 0 1.9.9 1.9 1.9z"/></g></svg>