<svg enable-background="new 0 0 52 52" height="52" viewBox="0 0 52 52" width="52" xmlns="http://www.w3.org/2000/svg"><g fill="#fff"><path d="m43.1 29.5c-.1 0-.2 0-.2 0-1.6-.2-2.9-.6-4.1-1.5-.1-.1-.1-.1-.2-.1-.6-.5-1.1-.2-1.4-.1l-.1.1c-1.5 1.1-3.2 1.7-5.2 1.7-2.1 0-3.8-.6-5.4-1.8-.6-.4-1 0-1 0-1.6 1.3-3.4 1.9-5.5 1.9-2 0-3.8-.6-5.3-1.8-.1-.1-.2-.1-.2-.2-.5-.4-1 0-1 0-1.5 1.2-3.2 1.8-5.1 1.9 0 0-.6 0-.6.7v12 2.9c0 .3.2 1 1.1 1.2h18.5c1-.2 1.1-.9 1.1-1.2 0-.8 0-1.8 0-2.9 0-2.6 0-5.1 0-7.7.1-.3.2-.6 1-.6h8.4.5c.3.1.6.3.6 1v7.3 2.7c0 1.1.8 1.3 1 1.3h2.8c.2 0 1-.2 1-1.3 0-.8 0-1.7 0-2.7v-11.7c.1-.8-.3-1-.7-1.1zm-19.9 11.5v.3c0 .4-.2 1-1.2 1-2.7 0-5.4 0-8.1 0-.9 0-1.1-.4-1.2-.8 0-.1 0-.2 0-.4 0-1.8 0-3.8 0-5.7 0-1.4.8-1.5 1.1-1.5h8.5c.3 0 1 .2 1 1.3-.1 2-.1 3.9-.1 5.8z"/><path d="m42.3 25.5c2.2.6 4.1.2 5.7-1.4 1-1 1.7-2.2 1.9-3.5 0-.1 0-.2 0-.2-.2-.5-.4-1-.6-1.4-2.4-4.3-4.7-8.6-7-12.9-.3-.6-1-.6-1.2-.6h-30.5s-.9 0-1.2.6c-2.4 4.3-4.7 8.7-7 12.9-.2.4-.4 1-.4 1.6v.2c.2 1.4.8 2.6 1.8 3.5 1.8 1.6 3.8 2 6.2 1.2 1.3-.5 2.2-1.3 3-2.5l.3-.3c.5-.3 1.1-.2 1.5.3.4.6.9 1.2 1.5 1.6 1.7 1.3 3.6 1.5 5.6.9 1.3-.4 2.3-1.3 3-2.5.4-.6 1.4-.7 1.8 0 .2.2.3.5.5.7 1 1.2 2.3 1.9 3.8 2.1 1.4.2 2.8-.2 4.1-1 .7-.5 1.3-1.1 1.7-1.8.5-.6 1.4-.6 1.8 0 .8 1.3 1.8 2.1 3.3 2.5z"/></g></svg>