<svg enable-background="new 0 0 52 52" height="52" viewBox="0 0 52 52" width="52" xmlns="http://www.w3.org/2000/svg"><path d="m47 21-4.52-12.16c-.72-2.32-2.88-3.84-5.28-3.84h-22.4c-2.4 0-4.56 1.52-5.36 3.84l-4.44 12.16c-2.08.56-3 2.56-3 4.8v11.6c0 2.08 2.16 3.88 4 4.6v4.0334473c0 1.3110351.67423503 1.9665527 2.02270508 1.9665527h5.02758792c1.2998047 0 1.949707-.6555176 1.949707-1.9665527v-4.0334473h22v4.0334473c0 1.3110351.6625977 1.9665527 1.987793 1.9665527h5.0334472c1.3191732 0 1.9787598-.6555176 1.9787598-1.9665527v-4.0734473c1.84-.64 4-2.4 4-4.56v-11.6c0-2.24-.92-4.24-3-4.8zm-36 13c-2.24 0-4-1.76-4-4s1.76-4 4-4 4 1.76 4 4-1.76 4-4 4zm16.6-13h-15.84c-.56 0-.92-.52-.76-1l3-9c.08-.32.289856-1 1-1h22c.7802124 0 .92.76 1 1l3 9c.2.6424561-.119873 1-.92 1zm13.4 13c-2.24 0-4-1.76-4-4s1.76-4 4-4 4 1.76 4 4-1.76 4-4 4z" fill="inherit"/></svg>