<svg xmlns="http://www.w3.org/2000/svg" xmlns:xlink="http://www.w3.org/1999/xlink" width="170" height="170" viewBox="0 0 170 170">
  <defs>
    <clipPath id="clip-path">
      <rect width="24" height="24" fill="none"/>
    </clipPath>
  </defs>
  <g id="_7S_Lead_21" data-name="7S Lead 21" transform="translate(-200 -218)">
    <rect id="Rectangle_37" data-name="Rectangle 37" width="112" height="107" transform="translate(200 256)" fill="#d8dde7"/>
    <rect id="Rectangle_38" data-name="Rectangle 38" width="53" height="107" transform="translate(317 256)" fill="#d8dde7"/>
    <rect id="Rectangle_1" data-name="Rectangle 1" width="170" height="34" transform="translate(200 218)" fill="#8c929f"/>
    <path id="Path_19" data-name="Path 19" d="M4,5H-1V0H4V-3l6,5.5L4,8Z" transform="translate(350 233)" fill="#fff"/>
    <path id="Path_20" data-name="Path 20" d="M5,5h5V0H5V-3L-1,2.5,5,8Z" transform="translate(211 233)" fill="#fff"/>
    <rect id="Rectangle_78" data-name="Rectangle 78" width="170" height="21" transform="translate(200 367)" fill="#d8dde7"/>
    <g id="Component_8" data-name="Component 8" transform="translate(341 359)" clip-path="url(#clip-path)">
      <rect id="Rectangle_1-2" data-name="Rectangle 1" width="24" height="24" fill="#0a9ad7"/>
      <g id="Layer_2" data-name="Layer 2" transform="translate(1 8.25)">
        <g id="Layer_1" data-name="Layer 1" transform="translate(0 0)">
          <path id="Path_12" data-name="Path 12" d="M21.949,5.632a1.79,1.79,0,0,0-.188-.417,3.887,3.887,0,0,0-.438-.581,9.463,9.463,0,0,0-.855-.81c-.528-.452-.97-.775-1.265-.991l-.525-.4h0l-.407-.271L18.2,2.121a13.479,13.479,0,0,0-1.328-.775,5.02,5.02,0,0,0-.546-.219,2.2,2.2,0,0,0-.313-.083,1.877,1.877,0,0,0-.2-.035,1.227,1.227,0,0,0-.226,0,1.884,1.884,0,0,0-.786.275,5.065,5.065,0,0,0-.612.438c-.209.17-.414.348-.643.56l-.129-.122c-.348-.323-.671-.654-1.043-.98a7.506,7.506,0,0,0-.914-.765,2.983,2.983,0,0,0-.657-.32,2.058,2.058,0,0,0-.212-.056L10.247,0h-.1a1.391,1.391,0,0,0-.219.024A2.378,2.378,0,0,0,9.2.3a4.485,4.485,0,0,0-.553.369c-.282.219-.57.473-.907.789l-1.662,1.6a22.308,22.308,0,0,1-1.69,1.505l-.16.125h-.98A9.428,9.428,0,0,0,2.1,4.721a4.252,4.252,0,0,0-1.22.289,1.85,1.85,0,0,0-.64.435.984.984,0,0,0-.247.525.838.838,0,0,0,.045.372.935.935,0,0,0,.181.289,1.126,1.126,0,0,0,.424.278,1.843,1.843,0,0,0,.393.1,2.475,2.475,0,0,0,.309.021h.038l.348-.017a4.686,4.686,0,0,0,1.248-.3,8.827,8.827,0,0,0,2-1.112c1.168,0,2.4-.017,3.563-.115A13.228,13.228,0,0,0,10.5,5.173a7.012,7.012,0,0,0,1.783-.7,6.338,6.338,0,0,0,.758-.515c.094-.073.184-.156.275-.233a12.838,12.838,0,0,0,1.533,1.137,16.124,16.124,0,0,0,3.5,1.606,9.435,9.435,0,0,0,1.7.386,4.123,4.123,0,0,0,.866.021,1.867,1.867,0,0,0,.48-.115.921.921,0,0,0,.5-.462.935.935,0,0,0,.056-.671Zm-1.286-.4a2.666,2.666,0,0,1,.33.438.751.751,0,0,1,.087.195h-.017a.963.963,0,0,1-.233.042,3.059,3.059,0,0,1-.661-.038,8.451,8.451,0,0,1-1.509-.4,14.33,14.33,0,0,1-3.2-1.63A11.674,11.674,0,0,1,14.2,2.865a6.206,6.206,0,0,1,.553-.476,3.824,3.824,0,0,1,.5-.348.973.973,0,0,1,.4-.153.987.987,0,0,1,.379.083c.132.049.275.111.442.191a13.427,13.427,0,0,1,1.248.751l.052.035c.188.122.32.212.389.261l.511.348c.282.205.7.515,1.213.939A7.9,7.9,0,0,1,20.663,5.236ZM6.138,4.679c.3-.247.567-.487.789-.7.369-.32.734-.65,1.1-.977.209-.188.417-.379.622-.56l.09-.08c.25-.222.49-.435.734-.619a1.888,1.888,0,0,1,.7-.386h.153l.1.028a1.575,1.575,0,0,1,.348.167,6.859,6.859,0,0,1,.789.6q.348.306.7.626l.386.348c-.045.038-.094.08-.146.118a4.888,4.888,0,0,1-.681.438,7.886,7.886,0,0,1-3.379.89C7.678,4.645,6.882,4.669,6.138,4.679ZM1.146,5.987H1.09a1.554,1.554,0,0,1,.174-.1,3.153,3.153,0,0,1,.939-.24c.17-.017.348-.031.511-.038h.059l-.216.1h0A3.619,3.619,0,0,1,1.6,5.98L1.347,6a1.043,1.043,0,0,1-.2-.014Z" transform="translate(0.013)" fill="#fff"/>
        </g>
      </g>
    </g>
  </g>
</svg>